# xmcd
#
# Track frame offsets:
#	150
#	15292
#	34331
#	55727
#	84636
#	105136
#	124271
#	138747
#	159044
#	178680
#	194904
#	211748
#
# Disc length: 3187 seconds
#
# Revision: 1
# Processed by: cddbd v1.5.2PL0 Copyright (c) Steve Scherf et al.
# Submitted via: audiograbber 1.83.01
#
DISCID=9a0c710c
DTITLE=Wade Bowen - Wade Bowen
DYEAR=2014
DGENRE=Country
TTITLE0=When I Woke Up Today
TTITLE1=Sun Shines on a Dreamer
TTITLE2=My California
TTITLE3=Watch Her Drive
TTITLE4=Hungover
TTITLE5=West Texas Rain
TTITLE6=When It's Reckless
TTITLE7=Long Enough to be a Memory
TTITLE8=Sweet Leona
TTITLE9=Welcome Mat
TTITLE10=Honky Tonk Road
TTITLE11=I'm Gonna Go
EXTD=
EXTT0=
EXTT1=
EXTT2=
EXTT3=
EXTT4=
EXTT5=
EXTT6=
EXTT7=
EXTT8=
EXTT9=
EXTT10=
EXTT11=
PLAYORDER=
